<?xml version="1.0" standalone="no"?>
<!DOCTYPE svg PUBLIC "-//W3C//DTD SVG 20010904//EN"
 "http://www.w3.org/TR/2001/REC-SVG-20010904/DTD/svg10.dtd">
<svg version="1.0" xmlns="http://www.w3.org/2000/svg"
 width="390.000000pt" height="247.000000pt" viewBox="0 0 390.000000 247.000000"
 preserveAspectRatio="xMidYMid meet">

<g transform="translate(0.000000,247.000000) scale(0.100000,-0.100000)"
fill="#000000" stroke="none">
<path d="M942 1660 c-191 -51 -366 -195 -307 -254 28 -28 60 -19 122 34 107
91 245 150 354 150 102 0 135 -34 89 -92 -23 -30 -98 -80 -153 -103 -36 -15
-38 -15 -35 2 7 46 -44 58 -81 19 -13 -13 -75 -127 -139 -253 l-117 -228 -47
-7 c-26 -3 -52 -9 -57 -13 -18 -11 -12 -51 10 -71 19 -17 37 -19 148 -18 147
0 215 16 340 76 150 72 221 167 200 267 -12 54 -40 83 -116 121 l-70 36 77 37
c87 42 163 111 180 162 16 49 -10 101 -65 129 -58 30 -232 33 -333 6z m91
-411 c57 -29 84 -56 98 -96 29 -89 -97 -184 -288 -217 l-32 -5 85 169 c47 94
88 170 90 170 3 0 24 -10 47 -21z"/>
<path d="M1473 1239 c-90 -44 -164 -164 -171 -276 -4 -61 -3 -64 31 -98 64
-64 149 -43 239 58 l38 42 0 -35 c0 -19 9 -50 20 -67 26 -44 73 -45 147 -3 47
27 53 28 53 12 0 -46 64 -56 133 -21 23 12 77 56 120 97 42 42 77 72 77 69 0
-20 -109 -221 -150 -277 -59 -81 -76 -114 -85 -167 -5 -34 -3 -45 14 -62 12
-12 28 -21 37 -21 34 0 90 74 133 175 50 117 80 150 199 213 76 40 81 41 87
23 3 -11 20 -32 36 -46 24 -20 41 -25 83 -25 82 0 143 26 204 86 49 50 54 52
82 42 24 -8 38 -6 69 9 l39 19 -9 -30 c-14 -50 -10 -75 16 -101 51 -52 179
-24 262 57 l42 41 -2 -45 c-2 -57 14 -78 62 -78 104 0 301 157 255 203 -3 3
-29 -12 -57 -34 -67 -54 -123 -81 -155 -77 -24 3 -27 7 -24 38 1 19 25 83 53
141 60 125 62 154 9 154 -34 0 -36 -3 -77 -83 -57 -112 -104 -174 -161 -212
-62 -41 -106 -39 -110 6 -3 29 40 124 103 230 26 44 15 66 -32 62 -34 -3 -42
-9 -83 -70 -52 -76 -127 -141 -165 -140 -34 0 -37 4 -25 36 24 64 2 134 -50
161 -43 22 -141 19 -195 -6 -56 -26 -128 -105 -151 -165 -15 -40 -25 -49 -78
-76 -34 -17 -73 -39 -88 -50 -16 -11 -28 -17 -28 -13 0 3 29 67 65 142 36 76
63 143 61 150 -3 7 -17 13 -31 13 -28 0 -66 -32 -242 -204 -58 -57 -96 -87
-102 -81 -6 6 14 58 51 137 34 71 58 134 55 143 -8 18 -56 20 -80 3 -9 -7 -32
-51 -51 -97 -37 -88 -72 -133 -143 -182 -47 -33 -68 -36 -77 -13 -11 29 -6 57
30 161 42 123 38 139 -32 129 -28 -3 -52 0 -71 9 -42 22 -130 19 -180 -6z
m122 -91 c17 -7 25 -19 25 -35 0 -51 -118 -183 -163 -183 -34 0 -47 19 -47 67
0 54 18 90 65 132 38 33 75 39 120 19z m1095 -7 c26 -50 3 -129 -54 -179 -85
-74 -163 -15 -122 93 24 62 76 105 126 105 29 0 42 -5 50 -19z"/>
</g>
</svg>
